<svg width="3566" height="345" viewBox="0 0 3566 345" fill="none" xmlns="http://www.w3.org/2000/svg">
<rect x="2958" y="8" width="608" height="324" rx="10" fill="#181818"/>
<path d="M3045.38 271.112V248.072C3045.38 243.805 3047.43 241.672 3051.53 241.672H3073.54C3077.81 241.672 3079.94 243.805 3079.94 248.072V271.112C3079.94 275.037 3077.81 277 3073.54 277H3051.53C3049.65 277 3048.11 276.488 3046.92 275.464C3045.9 274.269 3045.38 272.819 3045.38 271.112ZM3101.88 171.272V141.064H3211.71V171.272L3153.34 246.536H3211.71V276.744H3105.72V246.792L3166.65 171.272H3101.88ZM3225.18 188.168V176.392C3225.18 151.987 3236.96 139.784 3260.51 139.784C3300.96 139.784 3325.19 142.088 3333.21 146.696V169.224H3271.52C3269.3 169.224 3267.42 169.395 3265.88 169.736C3264.52 170.077 3263.49 170.675 3262.81 171.528C3262.13 172.381 3261.62 173.32 3261.28 174.344C3261.11 175.368 3261.02 176.819 3261.02 178.696V184.84C3261.02 188.765 3261.87 191.24 3263.58 192.264C3265.29 193.117 3267.93 193.544 3271.52 193.544H3303.77C3310.09 193.544 3315.55 194.483 3320.16 196.36C3324.93 198.067 3328.69 200.541 3331.42 203.784C3334.32 207.027 3336.45 210.781 3337.82 215.048C3339.19 219.144 3339.87 223.667 3339.87 228.616V242.696C3339.87 263.176 3331.25 274.867 3314.01 277.768C3311.62 278.109 3309.15 278.28 3306.59 278.28C3263.58 278.28 3238.32 275.805 3230.81 270.856V248.584H3295.07C3301.04 248.584 3304.03 245.683 3304.03 239.88V233.48C3304.03 231.432 3303.77 229.811 3303.26 228.616C3302.92 227.421 3302.07 226.483 3300.7 225.8C3299.33 225.117 3297.46 224.776 3295.07 224.776H3263.32C3250.87 224.776 3241.39 221.875 3234.91 216.072C3228.42 210.269 3225.18 200.968 3225.18 188.168ZM3359.02 277V76.552H3394.6V155.656C3397.16 153.779 3398.79 152.584 3399.47 152.072C3400.32 151.56 3401.94 150.451 3404.33 148.744C3406.89 147.037 3408.77 145.928 3409.96 145.416C3411.16 144.904 3413.04 144.136 3415.6 143.112C3418.16 141.917 3420.37 141.149 3422.25 140.808C3424.3 140.296 3426.69 139.869 3429.42 139.528C3432.15 139.016 3434.97 138.76 3437.87 138.76C3465 138.76 3478.57 154.632 3478.57 186.376V277H3442.73V185.864C3442.73 179.379 3441.37 174.685 3438.64 171.784C3436.08 168.883 3432.41 167.432 3427.63 167.432C3422.85 167.432 3418.58 167.944 3414.83 168.968C3411.24 169.821 3407.92 171.101 3404.84 172.808C3401.94 174.344 3398.61 176.477 3394.86 179.208V277H3359.02Z" fill="white"/>
<path d="M2237.36 344.12V139.064H2250.93L2255.79 154.168C2260.06 151.096 2267.57 147.597 2278.32 143.672C2289.07 139.576 2298.37 137.528 2306.22 137.528C2315.1 137.528 2322.61 139.576 2328.75 143.672C2334.9 147.768 2339.5 153.4 2342.58 160.568C2345.65 167.565 2347.78 174.819 2348.98 182.328C2350.34 189.667 2351.02 197.688 2351.02 206.392C2351.02 216.291 2350.43 224.995 2349.23 232.504C2348.21 239.843 2346.16 247.181 2343.09 254.52C2340.19 261.688 2335.58 267.235 2329.26 271.16C2323.12 275.085 2315.44 277.048 2306.22 277.048C2299.91 277.048 2291.8 276.109 2281.9 274.232C2272.18 272.355 2263.47 269.88 2255.79 266.808V344.12H2237.36ZM2255.79 251.448C2272.86 255.885 2289.67 258.104 2306.22 258.104C2315.1 258.104 2321.58 254.435 2325.68 247.096C2329.95 239.757 2332.08 226.189 2332.08 206.392C2332.08 173.112 2323.46 156.472 2306.22 156.472C2291.89 156.472 2275.08 160.397 2255.79 168.248V251.448ZM2379.11 226.616V74.552H2398.05V226.616C2398.05 237.027 2399.25 244.28 2401.64 248.376C2404.03 252.301 2407.7 254.861 2412.65 256.056C2426.64 259.64 2434.24 261.432 2435.43 261.432V275H2412.9C2390.37 275 2379.11 258.872 2379.11 226.616ZM2453.3 233.784V139.064H2472.24V233.784C2472.24 241.805 2474.38 247.949 2478.64 252.216C2482.91 256.312 2488.46 258.36 2495.28 258.36C2501.77 258.36 2507.91 257.677 2513.72 256.312C2519.52 254.947 2524.13 253.581 2527.54 252.216C2531.12 250.68 2537.1 247.864 2545.46 243.768V139.064H2564.4V275H2551.09L2545.46 259.128C2544.95 259.299 2543.07 260.408 2539.83 262.456C2536.59 264.333 2534.54 265.443 2533.68 265.784C2533 266.125 2531.21 267.149 2528.31 268.856C2525.41 270.392 2523.36 271.331 2522.16 271.672C2520.97 272.013 2519.01 272.696 2516.28 273.72C2513.55 274.744 2511.24 275.427 2509.36 275.768C2507.66 276.109 2505.52 276.451 2502.96 276.792C2500.4 277.133 2497.84 277.304 2495.28 277.304C2482.31 277.304 2472.07 273.037 2464.56 264.504C2457.05 255.971 2453.3 245.731 2453.3 233.784ZM2592.04 245.56C2592.04 240.781 2593.32 236.344 2595.88 232.248C2598.44 227.981 2602.19 225.336 2607.14 224.312C2597.24 217.997 2592.29 205.539 2592.29 186.936C2592.29 171.064 2596.13 159.032 2603.81 150.84C2611.66 142.648 2622.59 138.552 2636.58 138.552H2716.45V152.888L2695.72 157.496C2695.89 157.837 2696.49 158.947 2697.51 160.824C2698.53 162.531 2699.3 163.981 2699.81 165.176C2700.33 166.2 2700.92 167.821 2701.61 170.04C2702.29 172.088 2702.8 174.563 2703.14 177.464C2703.48 180.195 2703.65 183.352 2703.65 186.936C2703.65 191.715 2703.06 196.579 2701.86 201.528C2700.84 206.477 2698.96 211.853 2696.23 217.656C2693.5 223.288 2689.15 227.896 2683.17 231.48C2677.2 235.064 2669.95 236.856 2661.41 236.856H2621.48C2614.48 236.856 2610.98 239.416 2610.98 244.536C2610.98 250.339 2614.48 253.24 2621.48 253.24H2676.01C2686.42 253.24 2694.52 256.483 2700.33 262.968C2706.13 269.283 2709.03 277.816 2709.03 288.568V304.696C2709.03 309.304 2708.52 313.571 2707.49 317.496C2706.64 321.421 2704.93 325.517 2702.37 329.784C2699.98 334.221 2696.06 337.72 2690.6 340.28C2685.14 342.84 2678.48 344.12 2670.63 344.12H2632.23C2619.77 344.12 2609.79 340.792 2602.28 334.136C2594.94 327.48 2591.27 317.667 2591.27 304.696V282.936L2601.51 266.296C2595.2 261.859 2592.04 254.947 2592.04 245.56ZM2610.21 304.696C2610.21 318.349 2617.55 325.176 2632.23 325.176H2670.63C2683.6 325.176 2690.09 318.349 2690.09 304.696V289.848C2690.09 283.363 2688.89 278.755 2686.5 276.024C2684.28 273.464 2679.68 272.184 2672.68 272.184H2621.73C2619.34 272.184 2617.21 272.013 2615.33 271.672C2613.46 271.331 2612.18 270.989 2611.49 270.648L2610.21 270.136V304.696ZM2611.24 186.936C2611.24 190.52 2611.58 193.933 2612.26 197.176C2612.94 200.419 2614.05 203.747 2615.59 207.16C2617.13 210.403 2619.52 213.048 2622.76 215.096C2626.17 216.973 2630.18 217.912 2634.79 217.912H2659.88C2664.49 217.912 2668.5 216.973 2671.91 215.096C2675.32 213.219 2677.88 210.744 2679.59 207.672C2681.47 204.6 2682.75 201.528 2683.43 198.456C2684.28 195.213 2684.71 191.971 2684.71 188.728C2684.71 188.045 2684.71 187.448 2684.71 186.936C2684.2 177.037 2682.24 169.699 2678.82 164.92C2675.41 159.971 2669.01 157.496 2659.62 157.496H2636.58C2619.69 157.496 2611.24 167.309 2611.24 186.936ZM2734.3 117.048V103.224C2734.3 98.9573 2736.35 96.824 2740.44 96.824H2753.24C2757.17 96.824 2759.13 98.9573 2759.13 103.224V117.048C2759.13 120.973 2757.17 122.936 2753.24 122.936H2740.44C2736.35 122.936 2734.3 120.973 2734.3 117.048ZM2736.86 275V139.064H2755.8V275H2736.86ZM2787.36 275V139.064H2800.67L2806.3 154.936C2806.82 154.765 2808.69 153.741 2811.94 151.864C2815.18 149.816 2817.14 148.621 2817.82 148.28C2818.68 147.939 2820.55 147 2823.46 145.464C2826.36 143.757 2828.41 142.733 2829.6 142.392C2830.79 142.051 2832.76 141.368 2835.49 140.344C2838.22 139.32 2840.44 138.637 2842.14 138.296C2844.02 137.955 2846.24 137.613 2848.8 137.272C2851.36 136.931 2853.92 136.76 2856.48 136.76C2869.45 136.76 2879.69 141.027 2887.2 149.56C2894.71 158.093 2898.46 168.333 2898.46 180.28V275H2879.52V180.28C2879.52 172.259 2877.39 166.2 2873.12 162.104C2868.85 157.837 2863.31 155.704 2856.48 155.704C2849.99 155.704 2843.85 156.387 2838.05 157.752C2832.25 159.117 2827.55 160.568 2823.97 162.104C2820.55 163.469 2814.67 166.2 2806.3 170.296V275H2787.36Z" fill="#181818"/>
<rect y="7" width="2185" height="324" rx="10" fill="#181818"/>
<path d="M79.96 248.888C79.96 243.085 81.24 238.051 83.8 233.784C86.5307 229.347 90.5413 226.275 95.832 224.568C94.4667 223.715 93.1867 222.691 91.992 221.496C90.7973 220.301 89.688 219.021 88.664 217.656C87.8107 216.291 86.9573 214.84 86.104 213.304C85.4213 211.597 84.7387 209.891 84.056 208.184C83.544 206.477 83.032 204.771 82.52 203.064C82.1787 201.187 81.8373 199.395 81.496 197.688C81.3253 195.811 81.1547 194.019 80.984 192.312C80.984 190.435 80.984 188.643 80.984 186.936C80.984 154.68 96.6853 138.552 128.088 138.552H210.776V160.056L195.672 164.664C195.672 164.664 195.928 165.347 196.44 166.712C196.952 167.907 197.208 168.675 197.208 169.016C197.379 169.187 197.635 169.869 197.976 171.064C198.488 172.259 198.829 173.197 199 173.88C199.171 174.563 199.341 175.587 199.512 176.952C199.853 178.317 200.024 179.683 200.024 181.048C200.195 182.243 200.365 183.779 200.536 185.656C200.707 187.363 200.792 189.24 200.792 191.288C200.792 193.848 200.621 196.408 200.28 198.968C199.939 201.357 199.427 203.917 198.744 206.648C198.061 209.379 197.123 211.939 195.928 214.328C194.904 216.717 193.539 219.107 191.832 221.496C190.125 223.715 188.077 225.763 185.688 227.64C183.299 229.517 180.568 231.139 177.496 232.504C174.595 233.869 171.096 234.979 167 235.832C163.075 236.515 158.808 236.856 154.2 236.856H122.712C120.835 236.856 119.299 236.941 118.104 237.112C116.909 237.283 115.629 237.88 114.264 238.904C113.069 239.757 112.472 241.037 112.472 242.744C112.472 245.475 113.325 247.352 115.032 248.376C116.909 249.229 119.469 249.656 122.712 249.656H164.44C177.069 249.656 186.883 253.069 193.88 259.896C201.048 266.552 204.632 276.621 204.632 290.104V304.696C204.632 307.256 204.461 309.645 204.12 311.864C203.779 314.253 203.267 316.643 202.584 319.032C202.072 321.421 201.219 323.64 200.024 325.688C198.829 327.907 197.464 329.955 195.928 331.832C194.392 333.709 192.515 335.331 190.296 336.696C188.077 338.232 185.603 339.512 182.872 340.536C180.141 341.731 176.984 342.584 173.4 343.096C169.987 343.779 166.232 344.12 162.136 344.12H123.736C115.373 344.12 108.035 342.755 101.72 340.024C95.576 337.293 90.6267 332.856 86.872 326.712C83.1173 320.739 81.24 313.4 81.24 304.696V287.544L93.272 275C91.3947 273.976 89.688 272.696 88.152 271.16C86.616 269.453 85.1653 267.491 83.8 265.272C82.6053 263.053 81.6667 260.579 80.984 257.848C80.3013 254.947 79.96 251.96 79.96 248.888ZM117.336 300.344C117.336 303.587 117.677 306.232 118.36 308.28C119.213 310.328 120.408 311.864 121.944 312.888C123.651 313.912 125.272 314.595 126.808 314.936C128.515 315.277 130.733 315.448 133.464 315.448H154.456C157.699 315.448 160.259 315.021 162.136 314.168C164.184 313.485 165.635 312.461 166.488 311.096C167.512 309.731 168.195 308.28 168.536 306.744C168.877 305.208 169.048 303.331 169.048 301.112V291.128C169.048 290.104 168.963 289.165 168.792 288.312C168.621 287.459 168.451 286.605 168.28 285.752C168.109 285.069 167.768 284.387 167.256 283.704C166.915 283.192 166.488 282.595 165.976 281.912C165.464 281.4 164.867 280.973 164.184 280.632C163.501 280.291 162.733 279.949 161.88 279.608C161.027 279.267 160.088 279.011 159.064 278.84C158.04 278.669 156.931 278.584 155.736 278.584H128.088L117.336 277.816V300.344ZM116.824 186.936C116.824 200.931 122.285 207.928 133.208 207.928H147.544C159.32 207.928 165.123 200.931 164.952 186.936C164.781 179.768 163.331 174.733 160.6 171.832C158.04 168.76 153.603 167.224 147.288 167.224H133.72C130.136 167.224 127.149 167.821 124.76 169.016C122.541 170.04 120.835 171.576 119.64 173.624C118.616 175.501 117.848 177.464 117.336 179.512C116.995 181.56 116.824 184.035 116.824 186.936ZM223.722 118.84V96.312C223.722 91.8747 225.77 89.656 229.866 89.656H256.746C260.501 89.656 262.378 91.8747 262.378 96.312V118.84C262.378 120.717 261.866 122.168 260.842 123.192C259.989 124.216 258.623 124.728 256.746 124.728H229.866C228.671 124.728 227.562 124.557 226.538 124.216C225.685 123.704 225.002 123.021 224.49 122.168C223.978 121.144 223.722 120.035 223.722 118.84ZM225.002 275V139.064H260.842V275H225.002ZM276.09 166.2V146.232L298.106 138.808L303.994 100.92H333.946V138.808H364.41V166.2H333.946V220.728C333.946 227.043 334.458 232.163 335.482 236.088C336.506 239.843 337.786 242.488 339.322 244.024C340.858 245.389 342.906 246.584 345.466 247.608C355.706 251.192 361.423 252.984 362.618 252.984V275H331.386C320.805 275 312.613 271.245 306.81 263.736C301.007 256.056 298.106 243.597 298.106 226.36V166.2H276.09ZM374.87 215.864V185.656H455.254V215.864H374.87ZM469.722 206.392C469.722 194.616 470.405 184.803 471.77 176.952C473.306 168.931 475.439 162.36 478.17 157.24C480.901 151.949 484.741 147.939 489.69 145.208C494.639 142.477 500.101 140.6 506.074 139.576C512.218 138.552 519.898 138.04 529.114 138.04C535.258 138.04 540.463 138.211 544.73 138.552C548.997 138.723 553.263 139.235 557.53 140.088C561.967 140.771 565.551 141.88 568.282 143.416C571.013 144.781 573.658 146.744 576.218 149.304C578.778 151.693 580.741 154.68 582.106 158.264C583.642 161.677 584.751 165.859 585.434 170.808C586.287 175.587 586.714 181.133 586.714 187.448C586.714 199.395 583.557 208.099 577.242 213.56C570.927 219.021 561.455 221.752 548.826 221.752H505.562C505.562 229.603 506.671 235.491 508.89 239.416C511.279 243.171 514.181 245.475 517.594 246.328C521.178 247.181 526.725 247.608 534.234 247.608C555.226 247.608 571.866 246.669 584.154 244.792V269.112C571.354 273.891 548.143 276.28 514.522 276.28C505.818 276.28 498.565 275 492.762 272.44C487.13 269.88 482.607 265.699 479.194 259.896C475.781 254.093 473.306 246.925 471.77 238.392C470.405 229.859 469.722 219.192 469.722 206.392ZM505.562 195.896H539.61C547.119 195.896 550.874 192.483 550.874 185.656C550.874 177.123 549.679 171.661 547.29 169.272C545.071 166.712 539.695 165.432 531.162 165.432C525.701 165.432 521.605 165.688 518.874 166.2C516.314 166.541 513.754 167.736 511.194 169.784C508.805 171.661 507.183 174.648 506.33 178.744C505.647 182.84 505.391 188.557 505.562 195.896ZM599.358 275L646.462 206.904L599.358 139.064H642.878L667.71 179.768L693.31 139.064H736.574L688.958 207.672L734.526 275H693.31L667.966 234.808L642.878 275H599.358ZM745.09 166.2V146.232L767.106 138.808L772.994 100.92H802.946V138.808H833.41V166.2H802.946V220.728C802.946 227.043 803.458 232.163 804.482 236.088C805.506 239.843 806.786 242.488 808.322 244.024C809.858 245.389 811.906 246.584 814.466 247.608C824.706 251.192 830.423 252.984 831.618 252.984V275H800.386C789.805 275 781.613 271.245 775.81 263.736C770.007 256.056 767.106 243.597 767.106 226.36V166.2H745.09ZM850.27 275V139.064H880.478L886.11 156.216C898.91 143.928 911.881 137.784 925.022 137.784C932.361 137.784 937.395 138.296 940.126 139.32V173.88C935.347 173.368 928.777 173.112 920.414 173.112C912.393 173.112 905.651 174.221 900.19 176.44C894.899 178.488 890.206 182.413 886.11 188.216V275H850.27ZM953.18 240.44V227.64C953.18 222.349 953.863 217.571 955.228 213.304C956.764 209.037 959.068 205.112 962.14 201.528C965.212 197.944 969.308 195.213 974.428 193.336C979.719 191.288 985.948 190.264 993.116 190.264C999.772 190.264 1006.34 190.349 1012.83 190.52C1019.48 190.52 1026.23 190.435 1033.05 190.264C1033.22 184.632 1033.22 181.731 1033.05 181.56C1033.05 177.976 1032.63 175.075 1031.77 172.856C1031.09 170.637 1029.89 168.931 1028.19 167.736C1026.48 166.541 1024.6 165.773 1022.56 165.432C1020.51 165.091 1017.95 164.92 1014.88 164.92C1003.78 164.92 984.753 165.859 957.788 167.736V145.72C972.977 139.747 993.628 136.675 1019.74 136.504C1035.44 136.504 1047.56 139.832 1056.09 146.488C1064.63 152.973 1068.89 164.237 1068.89 180.28V275H1040.48L1033.05 260.152C1032.37 261.347 1030.15 263.224 1026.4 265.784C1022.81 268.173 1017.69 270.648 1011.04 273.208C1004.38 275.597 997.895 276.707 991.58 276.536C979.292 276.195 969.82 272.525 963.164 265.528C956.508 258.36 953.18 249.997 953.18 240.44ZM989.02 235.32C989.02 240.44 990.129 243.853 992.348 245.56C994.567 247.096 997.724 247.864 1001.82 247.864C1003.87 247.864 1006 247.693 1008.22 247.352C1010.44 246.84 1012.49 246.328 1014.36 245.816C1016.41 245.133 1018.37 244.451 1020.25 243.768C1022.13 242.915 1023.84 242.147 1025.37 241.464C1026.91 240.611 1028.19 239.928 1029.21 239.416C1030.41 238.733 1031.35 238.221 1032.03 237.88C1032.71 237.368 1033.05 237.112 1033.05 237.112V212.28L1000.03 214.84C997.809 215.011 995.932 215.608 994.396 216.632C992.86 217.485 991.665 218.595 990.812 219.96C990.129 221.325 989.617 222.691 989.276 224.056C989.105 225.421 989.02 226.957 989.02 228.664V235.32ZM1083.37 215.864V185.656H1163.75V215.864H1083.37ZM1180.27 344.12V139.064H1209.71L1215.85 152.632C1220.8 148.707 1227.03 145.208 1234.54 142.136C1242.22 139.064 1249.73 137.528 1257.07 137.528C1263.73 137.528 1269.53 138.637 1274.48 140.856C1279.6 143.075 1283.78 146.147 1287.02 150.072C1290.44 153.997 1293.25 158.861 1295.47 164.664C1297.69 170.467 1299.22 176.781 1300.08 183.608C1300.93 190.435 1301.36 198.029 1301.36 206.392C1301.36 213.389 1301.1 219.704 1300.59 225.336C1300.25 230.968 1299.48 236.6 1298.29 242.232C1297.09 247.693 1295.38 252.472 1293.17 256.568C1291.12 260.664 1288.47 264.333 1285.23 267.576C1282.16 270.648 1278.23 273.037 1273.45 274.744C1268.68 276.28 1263.21 277.048 1257.07 277.048C1250.93 277.048 1244.01 276.28 1236.33 274.744C1228.65 273.037 1221.83 270.904 1215.85 268.344V344.12H1180.27ZM1215.85 243.768C1224.73 247.181 1235.4 248.888 1247.85 248.888C1251.95 248.888 1255.19 247.949 1257.58 246.072C1259.97 244.024 1261.85 239.928 1263.21 233.784C1264.75 227.64 1265.52 219.021 1265.52 207.928C1265.52 193.251 1264.07 183.011 1261.17 177.208C1258.26 171.235 1253.83 168.248 1247.85 168.248C1235.22 168.248 1224.56 170.979 1215.85 176.44V243.768ZM1322.52 275V139.064H1352.73L1358.36 156.216C1371.16 143.928 1384.13 137.784 1397.27 137.784C1404.61 137.784 1409.65 138.296 1412.38 139.32V173.88C1407.6 173.368 1401.03 173.112 1392.66 173.112C1384.64 173.112 1377.9 174.221 1372.44 176.44C1367.15 178.488 1362.46 182.413 1358.36 188.216V275H1322.52ZM1427.22 208.952C1427.22 194.957 1428.25 183.437 1430.29 174.392C1432.34 165.347 1435.93 158.093 1441.05 152.632C1446.17 147.171 1452.48 143.331 1459.99 141.112C1467.67 138.893 1477.4 137.784 1489.17 137.784C1512.56 137.784 1528.68 142.904 1537.56 153.144C1546.6 163.384 1551.13 181.987 1551.13 208.952C1551.13 234.381 1546.69 251.96 1537.81 261.688C1529.11 271.416 1512.9 276.28 1489.17 276.28C1479.79 276.28 1471.6 275.512 1464.6 273.976C1457.77 272.269 1451.88 269.795 1446.93 266.552C1442.16 263.309 1438.32 259.043 1435.41 253.752C1432.51 248.291 1430.38 241.976 1429.01 234.808C1427.82 227.469 1427.22 218.851 1427.22 208.952ZM1463.06 208.952C1463.06 217.656 1463.49 224.568 1464.34 229.688C1465.2 234.808 1466.73 238.733 1468.95 241.464C1471.34 244.024 1473.98 245.645 1476.89 246.328C1479.79 247.011 1483.88 247.352 1489.17 247.352C1493.78 247.352 1497.28 247.181 1499.67 246.84C1502.23 246.499 1504.62 245.645 1506.84 244.28C1509.23 242.915 1510.93 240.781 1511.96 237.88C1513.15 234.979 1514.01 231.309 1514.52 226.872C1515.03 222.264 1515.29 216.291 1515.29 208.952C1515.29 201.101 1515.03 194.787 1514.52 190.008C1514.18 185.059 1513.49 180.963 1512.47 177.72C1511.45 174.307 1509.82 171.917 1507.61 170.552C1505.39 169.016 1502.91 167.992 1500.18 167.48C1497.45 166.797 1493.78 166.456 1489.17 166.456C1485.42 166.456 1482.35 166.627 1479.96 166.968C1477.57 167.309 1475.26 168.077 1473.05 169.272C1470.83 170.296 1469.12 171.747 1467.93 173.624C1466.9 175.331 1465.96 177.805 1465.11 181.048C1464.26 184.291 1463.66 188.131 1463.32 192.568C1463.15 197.005 1463.06 202.467 1463.06 208.952ZM1564.84 166.456V143.416L1586.09 139.064V113.72C1586.09 107.576 1586.77 102.2 1588.14 97.592C1589.5 92.984 1591.63 88.888 1594.54 85.304C1597.61 81.5493 1601.79 78.7333 1607.08 76.856C1612.37 74.808 1618.77 73.784 1626.28 73.784C1639.08 73.784 1650.51 75.832 1660.58 79.928V101.176L1636.01 100.92C1633.28 100.92 1630.97 101.261 1629.1 101.944C1627.22 102.627 1625.77 103.395 1624.74 104.248C1623.89 104.931 1623.21 106.467 1622.7 108.856C1622.35 111.075 1622.1 112.952 1621.93 114.488C1621.93 115.853 1621.93 118.413 1621.93 122.168V139.064H1652.9V166.456H1621.93V275H1586.09V166.456H1564.84ZM1673.72 118.84V96.312C1673.72 91.8747 1675.77 89.656 1679.87 89.656H1706.75C1710.5 89.656 1712.38 91.8747 1712.38 96.312V118.84C1712.38 120.717 1711.87 122.168 1710.84 123.192C1709.99 124.216 1708.62 124.728 1706.75 124.728H1679.87C1678.67 124.728 1677.56 124.557 1676.54 124.216C1675.68 123.704 1675 123.021 1674.49 122.168C1673.98 121.144 1673.72 120.035 1673.72 118.84ZM1675 275V139.064H1710.84V275H1675ZM1733.77 226.616V74.552H1769.61V220.984C1769.61 230.029 1770.55 236.344 1772.43 239.928C1774.3 243.512 1777.29 246.072 1781.39 247.608C1791.63 251.192 1797.34 252.984 1798.54 252.984V275H1768.84C1763.21 275 1758.26 274.147 1753.99 272.44C1749.73 270.733 1746.06 268.088 1742.99 264.504C1739.91 260.749 1737.61 255.715 1736.07 249.4C1734.54 243.085 1733.77 235.491 1733.77 226.616ZM1811.97 206.392C1811.97 194.616 1812.65 184.803 1814.02 176.952C1815.56 168.931 1817.69 162.36 1820.42 157.24C1823.15 151.949 1826.99 147.939 1831.94 145.208C1836.89 142.477 1842.35 140.6 1848.32 139.576C1854.47 138.552 1862.15 138.04 1871.36 138.04C1877.51 138.04 1882.71 138.211 1886.98 138.552C1891.25 138.723 1895.51 139.235 1899.78 140.088C1904.22 140.771 1907.8 141.88 1910.53 143.416C1913.26 144.781 1915.91 146.744 1918.47 149.304C1921.03 151.693 1922.99 154.68 1924.36 158.264C1925.89 161.677 1927 165.859 1927.68 170.808C1928.54 175.587 1928.96 181.133 1928.96 187.448C1928.96 199.395 1925.81 208.099 1919.49 213.56C1913.18 219.021 1903.71 221.752 1891.08 221.752H1847.81C1847.81 229.603 1848.92 235.491 1851.14 239.416C1853.53 243.171 1856.43 245.475 1859.84 246.328C1863.43 247.181 1868.97 247.608 1876.48 247.608C1897.48 247.608 1914.12 246.669 1926.4 244.792V269.112C1913.6 273.891 1890.39 276.28 1856.77 276.28C1848.07 276.28 1840.81 275 1835.01 272.44C1829.38 269.88 1824.86 265.699 1821.44 259.896C1818.03 254.093 1815.56 246.925 1814.02 238.392C1812.65 229.859 1811.97 219.192 1811.97 206.392ZM1847.81 195.896H1881.86C1889.37 195.896 1893.12 192.483 1893.12 185.656C1893.12 177.123 1891.93 171.661 1889.54 169.272C1887.32 166.712 1881.95 165.432 1873.41 165.432C1867.95 165.432 1863.85 165.688 1861.12 166.2C1858.56 166.541 1856 167.736 1853.44 169.784C1851.05 171.661 1849.43 174.648 1848.58 178.744C1847.9 182.84 1847.64 188.557 1847.81 195.896ZM1944.68 186.168V174.392C1944.68 149.987 1956.46 137.784 1980.01 137.784C2020.46 137.784 2044.69 140.088 2052.71 144.696V167.224H1991.02C1988.8 167.224 1986.92 167.395 1985.38 167.736C1984.02 168.077 1982.99 168.675 1982.31 169.528C1981.63 170.381 1981.12 171.32 1980.78 172.344C1980.61 173.368 1980.52 174.819 1980.52 176.696V182.84C1980.52 186.765 1981.37 189.24 1983.08 190.264C1984.79 191.117 1987.43 191.544 1991.02 191.544H2023.27C2029.59 191.544 2035.05 192.483 2039.66 194.36C2044.43 196.067 2048.19 198.541 2050.92 201.784C2053.82 205.027 2055.95 208.781 2057.32 213.048C2058.69 217.144 2059.37 221.667 2059.37 226.616V240.696C2059.37 261.176 2050.75 272.867 2033.51 275.768C2031.12 276.109 2028.65 276.28 2026.09 276.28C1983.08 276.28 1957.82 273.805 1950.31 268.856V246.584H2014.57C2020.54 246.584 2023.53 243.683 2023.53 237.88V231.48C2023.53 229.432 2023.27 227.811 2022.76 226.616C2022.42 225.421 2021.57 224.483 2020.2 223.8C2018.83 223.117 2016.96 222.776 2014.57 222.776H1982.82C1970.37 222.776 1960.89 219.875 1954.41 214.072C1947.92 208.269 1944.68 198.968 1944.68 186.168ZM2083.38 269.112V246.072C2083.38 241.805 2085.43 239.672 2089.53 239.672H2111.54C2115.81 239.672 2117.94 241.805 2117.94 246.072V269.112C2117.94 273.037 2115.81 275 2111.54 275H2089.53C2087.65 275 2086.11 274.488 2084.92 273.464C2083.9 272.269 2083.38 270.819 2083.38 269.112Z" fill="white"/>
</svg>
