<svg width="3566" height="350" viewBox="0 0 3566 350" fill="none" xmlns="http://www.w3.org/2000/svg">
<rect x="2958" y="5" width="608" height="324" rx="10" fill="#181818"/>
<path d="M3034.38 271.112V248.072C3034.38 243.805 3036.43 241.672 3040.53 241.672H3062.54C3066.81 241.672 3068.94 243.805 3068.94 248.072V271.112C3068.94 275.037 3066.81 277 3062.54 277H3040.53C3038.65 277 3037.11 276.488 3035.92 275.464C3034.9 274.269 3034.38 272.819 3034.38 271.112ZM3090.88 171.272V141.064H3200.71V171.272L3142.34 246.536H3200.71V276.744H3094.72V246.792L3155.65 171.272H3090.88ZM3214.18 188.168V176.392C3214.18 151.987 3225.96 139.784 3249.51 139.784C3289.96 139.784 3314.19 142.088 3322.21 146.696V169.224H3260.52C3258.3 169.224 3256.42 169.395 3254.88 169.736C3253.52 170.077 3252.49 170.675 3251.81 171.528C3251.13 172.381 3250.62 173.32 3250.28 174.344C3250.11 175.368 3250.02 176.819 3250.02 178.696V184.84C3250.02 188.765 3250.87 191.24 3252.58 192.264C3254.29 193.117 3256.93 193.544 3260.52 193.544H3292.77C3299.09 193.544 3304.55 194.483 3309.16 196.36C3313.93 198.067 3317.69 200.541 3320.42 203.784C3323.32 207.027 3325.45 210.781 3326.82 215.048C3328.19 219.144 3328.87 223.667 3328.87 228.616V242.696C3328.87 263.176 3320.25 274.867 3303.01 277.768C3300.62 278.109 3298.15 278.28 3295.59 278.28C3252.58 278.28 3227.32 275.805 3219.81 270.856V248.584H3284.07C3290.04 248.584 3293.03 245.683 3293.03 239.88V233.48C3293.03 231.432 3292.77 229.811 3292.26 228.616C3291.92 227.421 3291.07 226.483 3289.7 225.8C3288.33 225.117 3286.46 224.776 3284.07 224.776H3252.32C3239.87 224.776 3230.39 221.875 3223.91 216.072C3217.42 210.269 3214.18 200.968 3214.18 188.168ZM3348.02 277V76.552H3383.6V155.656C3386.16 153.779 3387.79 152.584 3388.47 152.072C3389.32 151.56 3390.94 150.451 3393.33 148.744C3395.89 147.037 3397.77 145.928 3398.96 145.416C3400.16 144.904 3402.04 144.136 3404.6 143.112C3407.16 141.917 3409.37 141.149 3411.25 140.808C3413.3 140.296 3415.69 139.869 3418.42 139.528C3421.15 139.016 3423.97 138.76 3426.87 138.76C3454 138.76 3467.57 154.632 3467.57 186.376V277H3431.73V185.864C3431.73 179.379 3430.37 174.685 3427.64 171.784C3425.08 168.883 3421.41 167.432 3416.63 167.432C3411.85 167.432 3407.58 167.944 3403.83 168.968C3400.24 169.821 3396.92 171.101 3393.84 172.808C3390.94 174.344 3387.61 176.477 3383.86 179.208V277H3348.02Z" fill="white"/>
<path d="M2231.36 344.12V139.064H2244.93L2249.79 154.168C2254.06 151.096 2261.57 147.597 2272.32 143.672C2283.07 139.576 2292.37 137.528 2300.22 137.528C2309.1 137.528 2316.61 139.576 2322.75 143.672C2328.9 147.768 2333.5 153.4 2336.58 160.568C2339.65 167.565 2341.78 174.819 2342.98 182.328C2344.34 189.667 2345.02 197.688 2345.02 206.392C2345.02 216.291 2344.43 224.995 2343.23 232.504C2342.21 239.843 2340.16 247.181 2337.09 254.52C2334.19 261.688 2329.58 267.235 2323.26 271.16C2317.12 275.085 2309.44 277.048 2300.22 277.048C2293.91 277.048 2285.8 276.109 2275.9 274.232C2266.18 272.355 2257.47 269.88 2249.79 266.808V344.12H2231.36ZM2249.79 251.448C2266.86 255.885 2283.67 258.104 2300.22 258.104C2309.1 258.104 2315.58 254.435 2319.68 247.096C2323.95 239.757 2326.08 226.189 2326.08 206.392C2326.08 173.112 2317.46 156.472 2300.22 156.472C2285.89 156.472 2269.08 160.397 2249.79 168.248V251.448ZM2373.11 226.616V74.552H2392.05V226.616C2392.05 237.027 2393.25 244.28 2395.64 248.376C2398.03 252.301 2401.7 254.861 2406.65 256.056C2420.64 259.64 2428.24 261.432 2429.43 261.432V275H2406.9C2384.37 275 2373.11 258.872 2373.11 226.616ZM2447.3 233.784V139.064H2466.24V233.784C2466.24 241.805 2468.38 247.949 2472.64 252.216C2476.91 256.312 2482.46 258.36 2489.28 258.36C2495.77 258.36 2501.91 257.677 2507.72 256.312C2513.52 254.947 2518.13 253.581 2521.54 252.216C2525.12 250.68 2531.1 247.864 2539.46 243.768V139.064H2558.4V275H2545.09L2539.46 259.128C2538.95 259.299 2537.07 260.408 2533.83 262.456C2530.59 264.333 2528.54 265.443 2527.68 265.784C2527 266.125 2525.21 267.149 2522.31 268.856C2519.41 270.392 2517.36 271.331 2516.16 271.672C2514.97 272.013 2513.01 272.696 2510.28 273.72C2507.55 274.744 2505.24 275.427 2503.36 275.768C2501.66 276.109 2499.52 276.451 2496.96 276.792C2494.4 277.133 2491.84 277.304 2489.28 277.304C2476.31 277.304 2466.07 273.037 2458.56 264.504C2451.05 255.971 2447.3 245.731 2447.3 233.784ZM2586.04 245.56C2586.04 240.781 2587.32 236.344 2589.88 232.248C2592.44 227.981 2596.19 225.336 2601.14 224.312C2591.24 217.997 2586.29 205.539 2586.29 186.936C2586.29 171.064 2590.13 159.032 2597.81 150.84C2605.66 142.648 2616.59 138.552 2630.58 138.552H2710.45V152.888L2689.72 157.496C2689.89 157.837 2690.49 158.947 2691.51 160.824C2692.53 162.531 2693.3 163.981 2693.81 165.176C2694.33 166.2 2694.92 167.821 2695.61 170.04C2696.29 172.088 2696.8 174.563 2697.14 177.464C2697.48 180.195 2697.65 183.352 2697.65 186.936C2697.65 191.715 2697.06 196.579 2695.86 201.528C2694.84 206.477 2692.96 211.853 2690.23 217.656C2687.5 223.288 2683.15 227.896 2677.17 231.48C2671.2 235.064 2663.95 236.856 2655.41 236.856H2615.48C2608.48 236.856 2604.98 239.416 2604.98 244.536C2604.98 250.339 2608.48 253.24 2615.48 253.24H2670.01C2680.42 253.24 2688.52 256.483 2694.33 262.968C2700.13 269.283 2703.03 277.816 2703.03 288.568V304.696C2703.03 309.304 2702.52 313.571 2701.49 317.496C2700.64 321.421 2698.93 325.517 2696.37 329.784C2693.98 334.221 2690.06 337.72 2684.6 340.28C2679.14 342.84 2672.48 344.12 2664.63 344.12H2626.23C2613.77 344.12 2603.79 340.792 2596.28 334.136C2588.94 327.48 2585.27 317.667 2585.27 304.696V282.936L2595.51 266.296C2589.2 261.859 2586.04 254.947 2586.04 245.56ZM2604.21 304.696C2604.21 318.349 2611.55 325.176 2626.23 325.176H2664.63C2677.6 325.176 2684.09 318.349 2684.09 304.696V289.848C2684.09 283.363 2682.89 278.755 2680.5 276.024C2678.28 273.464 2673.68 272.184 2666.68 272.184H2615.73C2613.34 272.184 2611.21 272.013 2609.33 271.672C2607.46 271.331 2606.18 270.989 2605.49 270.648L2604.21 270.136V304.696ZM2605.24 186.936C2605.24 190.52 2605.58 193.933 2606.26 197.176C2606.94 200.419 2608.05 203.747 2609.59 207.16C2611.13 210.403 2613.52 213.048 2616.76 215.096C2620.17 216.973 2624.18 217.912 2628.79 217.912H2653.88C2658.49 217.912 2662.5 216.973 2665.91 215.096C2669.32 213.219 2671.88 210.744 2673.59 207.672C2675.47 204.6 2676.75 201.528 2677.43 198.456C2678.28 195.213 2678.71 191.971 2678.71 188.728C2678.71 188.045 2678.71 187.448 2678.71 186.936C2678.2 177.037 2676.24 169.699 2672.82 164.92C2669.41 159.971 2663.01 157.496 2653.62 157.496H2630.58C2613.69 157.496 2605.24 167.309 2605.24 186.936ZM2728.3 117.048V103.224C2728.3 98.9573 2730.35 96.824 2734.44 96.824H2747.24C2751.17 96.824 2753.13 98.9573 2753.13 103.224V117.048C2753.13 120.973 2751.17 122.936 2747.24 122.936H2734.44C2730.35 122.936 2728.3 120.973 2728.3 117.048ZM2730.86 275V139.064H2749.8V275H2730.86ZM2781.36 275V139.064H2794.67L2800.3 154.936C2800.82 154.765 2802.69 153.741 2805.94 151.864C2809.18 149.816 2811.14 148.621 2811.82 148.28C2812.68 147.939 2814.55 147 2817.46 145.464C2820.36 143.757 2822.41 142.733 2823.6 142.392C2824.79 142.051 2826.76 141.368 2829.49 140.344C2832.22 139.32 2834.44 138.637 2836.14 138.296C2838.02 137.955 2840.24 137.613 2842.8 137.272C2845.36 136.931 2847.92 136.76 2850.48 136.76C2863.45 136.76 2873.69 141.027 2881.2 149.56C2888.71 158.093 2892.46 168.333 2892.46 180.28V275H2873.52V180.28C2873.52 172.259 2871.39 166.2 2867.12 162.104C2862.85 157.837 2857.31 155.704 2850.48 155.704C2843.99 155.704 2837.85 156.387 2832.05 157.752C2826.25 159.117 2821.55 160.568 2817.97 162.104C2814.55 163.469 2808.67 166.2 2800.3 170.296V275H2781.36Z" fill="white"/>
<rect y="12" width="2185" height="324" rx="10" fill="#181818"/>
<path d="M79.96 253.888C79.96 248.085 81.24 243.051 83.8 238.784C86.5307 234.347 90.5413 231.275 95.832 229.568C94.4667 228.715 93.1867 227.691 91.992 226.496C90.7973 225.301 89.688 224.021 88.664 222.656C87.8107 221.291 86.9573 219.84 86.104 218.304C85.4213 216.597 84.7387 214.891 84.056 213.184C83.544 211.477 83.032 209.771 82.52 208.064C82.1787 206.187 81.8373 204.395 81.496 202.688C81.3253 200.811 81.1547 199.019 80.984 197.312C80.984 195.435 80.984 193.643 80.984 191.936C80.984 159.68 96.6853 143.552 128.088 143.552H210.776V165.056L195.672 169.664C195.672 169.664 195.928 170.347 196.44 171.712C196.952 172.907 197.208 173.675 197.208 174.016C197.379 174.187 197.635 174.869 197.976 176.064C198.488 177.259 198.829 178.197 199 178.88C199.171 179.563 199.341 180.587 199.512 181.952C199.853 183.317 200.024 184.683 200.024 186.048C200.195 187.243 200.365 188.779 200.536 190.656C200.707 192.363 200.792 194.24 200.792 196.288C200.792 198.848 200.621 201.408 200.28 203.968C199.939 206.357 199.427 208.917 198.744 211.648C198.061 214.379 197.123 216.939 195.928 219.328C194.904 221.717 193.539 224.107 191.832 226.496C190.125 228.715 188.077 230.763 185.688 232.64C183.299 234.517 180.568 236.139 177.496 237.504C174.595 238.869 171.096 239.979 167 240.832C163.075 241.515 158.808 241.856 154.2 241.856H122.712C120.835 241.856 119.299 241.941 118.104 242.112C116.909 242.283 115.629 242.88 114.264 243.904C113.069 244.757 112.472 246.037 112.472 247.744C112.472 250.475 113.325 252.352 115.032 253.376C116.909 254.229 119.469 254.656 122.712 254.656H164.44C177.069 254.656 186.883 258.069 193.88 264.896C201.048 271.552 204.632 281.621 204.632 295.104V309.696C204.632 312.256 204.461 314.645 204.12 316.864C203.779 319.253 203.267 321.643 202.584 324.032C202.072 326.421 201.219 328.64 200.024 330.688C198.829 332.907 197.464 334.955 195.928 336.832C194.392 338.709 192.515 340.331 190.296 341.696C188.077 343.232 185.603 344.512 182.872 345.536C180.141 346.731 176.984 347.584 173.4 348.096C169.987 348.779 166.232 349.12 162.136 349.12H123.736C115.373 349.12 108.035 347.755 101.72 345.024C95.576 342.293 90.6267 337.856 86.872 331.712C83.1173 325.739 81.24 318.4 81.24 309.696V292.544L93.272 280C91.3947 278.976 89.688 277.696 88.152 276.16C86.616 274.453 85.1653 272.491 83.8 270.272C82.6053 268.053 81.6667 265.579 80.984 262.848C80.3013 259.947 79.96 256.96 79.96 253.888ZM117.336 305.344C117.336 308.587 117.677 311.232 118.36 313.28C119.213 315.328 120.408 316.864 121.944 317.888C123.651 318.912 125.272 319.595 126.808 319.936C128.515 320.277 130.733 320.448 133.464 320.448H154.456C157.699 320.448 160.259 320.021 162.136 319.168C164.184 318.485 165.635 317.461 166.488 316.096C167.512 314.731 168.195 313.28 168.536 311.744C168.877 310.208 169.048 308.331 169.048 306.112V296.128C169.048 295.104 168.963 294.165 168.792 293.312C168.621 292.459 168.451 291.605 168.28 290.752C168.109 290.069 167.768 289.387 167.256 288.704C166.915 288.192 166.488 287.595 165.976 286.912C165.464 286.4 164.867 285.973 164.184 285.632C163.501 285.291 162.733 284.949 161.88 284.608C161.027 284.267 160.088 284.011 159.064 283.84C158.04 283.669 156.931 283.584 155.736 283.584H128.088L117.336 282.816V305.344ZM116.824 191.936C116.824 205.931 122.285 212.928 133.208 212.928H147.544C159.32 212.928 165.123 205.931 164.952 191.936C164.781 184.768 163.331 179.733 160.6 176.832C158.04 173.76 153.603 172.224 147.288 172.224H133.72C130.136 172.224 127.149 172.821 124.76 174.016C122.541 175.04 120.835 176.576 119.64 178.624C118.616 180.501 117.848 182.464 117.336 184.512C116.995 186.56 116.824 189.035 116.824 191.936ZM223.722 123.84V101.312C223.722 96.8747 225.77 94.656 229.866 94.656H256.746C260.501 94.656 262.378 96.8747 262.378 101.312V123.84C262.378 125.717 261.866 127.168 260.842 128.192C259.989 129.216 258.623 129.728 256.746 129.728H229.866C228.671 129.728 227.562 129.557 226.538 129.216C225.685 128.704 225.002 128.021 224.49 127.168C223.978 126.144 223.722 125.035 223.722 123.84ZM225.002 280V144.064H260.842V280H225.002ZM276.09 171.2V151.232L298.106 143.808L303.994 105.92H333.946V143.808H364.41V171.2H333.946V225.728C333.946 232.043 334.458 237.163 335.482 241.088C336.506 244.843 337.786 247.488 339.322 249.024C340.858 250.389 342.906 251.584 345.466 252.608C355.706 256.192 361.423 257.984 362.618 257.984V280H331.386C320.805 280 312.613 276.245 306.81 268.736C301.007 261.056 298.106 248.597 298.106 231.36V171.2H276.09ZM374.87 220.864V190.656H455.254V220.864H374.87ZM469.722 211.392C469.722 199.616 470.405 189.803 471.77 181.952C473.306 173.931 475.439 167.36 478.17 162.24C480.901 156.949 484.741 152.939 489.69 150.208C494.639 147.477 500.101 145.6 506.074 144.576C512.218 143.552 519.898 143.04 529.114 143.04C535.258 143.04 540.463 143.211 544.73 143.552C548.997 143.723 553.263 144.235 557.53 145.088C561.967 145.771 565.551 146.88 568.282 148.416C571.013 149.781 573.658 151.744 576.218 154.304C578.778 156.693 580.741 159.68 582.106 163.264C583.642 166.677 584.751 170.859 585.434 175.808C586.287 180.587 586.714 186.133 586.714 192.448C586.714 204.395 583.557 213.099 577.242 218.56C570.927 224.021 561.455 226.752 548.826 226.752H505.562C505.562 234.603 506.671 240.491 508.89 244.416C511.279 248.171 514.181 250.475 517.594 251.328C521.178 252.181 526.725 252.608 534.234 252.608C555.226 252.608 571.866 251.669 584.154 249.792V274.112C571.354 278.891 548.143 281.28 514.522 281.28C505.818 281.28 498.565 280 492.762 277.44C487.13 274.88 482.607 270.699 479.194 264.896C475.781 259.093 473.306 251.925 471.77 243.392C470.405 234.859 469.722 224.192 469.722 211.392ZM505.562 200.896H539.61C547.119 200.896 550.874 197.483 550.874 190.656C550.874 182.123 549.679 176.661 547.29 174.272C545.071 171.712 539.695 170.432 531.162 170.432C525.701 170.432 521.605 170.688 518.874 171.2C516.314 171.541 513.754 172.736 511.194 174.784C508.805 176.661 507.183 179.648 506.33 183.744C505.647 187.84 505.391 193.557 505.562 200.896ZM599.358 280L646.462 211.904L599.358 144.064H642.878L667.71 184.768L693.31 144.064H736.574L688.958 212.672L734.526 280H693.31L667.966 239.808L642.878 280H599.358ZM745.09 171.2V151.232L767.106 143.808L772.994 105.92H802.946V143.808H833.41V171.2H802.946V225.728C802.946 232.043 803.458 237.163 804.482 241.088C805.506 244.843 806.786 247.488 808.322 249.024C809.858 250.389 811.906 251.584 814.466 252.608C824.706 256.192 830.423 257.984 831.618 257.984V280H800.386C789.805 280 781.613 276.245 775.81 268.736C770.007 261.056 767.106 248.597 767.106 231.36V171.2H745.09ZM850.27 280V144.064H880.478L886.11 161.216C898.91 148.928 911.881 142.784 925.022 142.784C932.361 142.784 937.395 143.296 940.126 144.32V178.88C935.347 178.368 928.777 178.112 920.414 178.112C912.393 178.112 905.651 179.221 900.19 181.44C894.899 183.488 890.206 187.413 886.11 193.216V280H850.27ZM953.18 245.44V232.64C953.18 227.349 953.863 222.571 955.228 218.304C956.764 214.037 959.068 210.112 962.14 206.528C965.212 202.944 969.308 200.213 974.428 198.336C979.719 196.288 985.948 195.264 993.116 195.264C999.772 195.264 1006.34 195.349 1012.83 195.52C1019.48 195.52 1026.23 195.435 1033.05 195.264C1033.22 189.632 1033.22 186.731 1033.05 186.56C1033.05 182.976 1032.63 180.075 1031.77 177.856C1031.09 175.637 1029.89 173.931 1028.19 172.736C1026.48 171.541 1024.6 170.773 1022.56 170.432C1020.51 170.091 1017.95 169.92 1014.88 169.92C1003.78 169.92 984.753 170.859 957.788 172.736V150.72C972.977 144.747 993.628 141.675 1019.74 141.504C1035.44 141.504 1047.56 144.832 1056.09 151.488C1064.63 157.973 1068.89 169.237 1068.89 185.28V280H1040.48L1033.05 265.152C1032.37 266.347 1030.15 268.224 1026.4 270.784C1022.81 273.173 1017.69 275.648 1011.04 278.208C1004.38 280.597 997.895 281.707 991.58 281.536C979.292 281.195 969.82 277.525 963.164 270.528C956.508 263.36 953.18 254.997 953.18 245.44ZM989.02 240.32C989.02 245.44 990.129 248.853 992.348 250.56C994.567 252.096 997.724 252.864 1001.82 252.864C1003.87 252.864 1006 252.693 1008.22 252.352C1010.44 251.84 1012.49 251.328 1014.36 250.816C1016.41 250.133 1018.37 249.451 1020.25 248.768C1022.13 247.915 1023.84 247.147 1025.37 246.464C1026.91 245.611 1028.19 244.928 1029.21 244.416C1030.41 243.733 1031.35 243.221 1032.03 242.88C1032.71 242.368 1033.05 242.112 1033.05 242.112V217.28L1000.03 219.84C997.809 220.011 995.932 220.608 994.396 221.632C992.86 222.485 991.665 223.595 990.812 224.96C990.129 226.325 989.617 227.691 989.276 229.056C989.105 230.421 989.02 231.957 989.02 233.664V240.32ZM1083.37 220.864V190.656H1163.75V220.864H1083.37ZM1180.27 349.12V144.064H1209.71L1215.85 157.632C1220.8 153.707 1227.03 150.208 1234.54 147.136C1242.22 144.064 1249.73 142.528 1257.07 142.528C1263.73 142.528 1269.53 143.637 1274.48 145.856C1279.6 148.075 1283.78 151.147 1287.02 155.072C1290.44 158.997 1293.25 163.861 1295.47 169.664C1297.69 175.467 1299.22 181.781 1300.08 188.608C1300.93 195.435 1301.36 203.029 1301.36 211.392C1301.36 218.389 1301.1 224.704 1300.59 230.336C1300.25 235.968 1299.48 241.6 1298.29 247.232C1297.09 252.693 1295.38 257.472 1293.17 261.568C1291.12 265.664 1288.47 269.333 1285.23 272.576C1282.16 275.648 1278.23 278.037 1273.45 279.744C1268.68 281.28 1263.21 282.048 1257.07 282.048C1250.93 282.048 1244.01 281.28 1236.33 279.744C1228.65 278.037 1221.83 275.904 1215.85 273.344V349.12H1180.27ZM1215.85 248.768C1224.73 252.181 1235.4 253.888 1247.85 253.888C1251.95 253.888 1255.19 252.949 1257.58 251.072C1259.97 249.024 1261.85 244.928 1263.21 238.784C1264.75 232.64 1265.52 224.021 1265.52 212.928C1265.52 198.251 1264.07 188.011 1261.17 182.208C1258.26 176.235 1253.83 173.248 1247.85 173.248C1235.22 173.248 1224.56 175.979 1215.85 181.44V248.768ZM1322.52 280V144.064H1352.73L1358.36 161.216C1371.16 148.928 1384.13 142.784 1397.27 142.784C1404.61 142.784 1409.65 143.296 1412.38 144.32V178.88C1407.6 178.368 1401.03 178.112 1392.66 178.112C1384.64 178.112 1377.9 179.221 1372.44 181.44C1367.15 183.488 1362.46 187.413 1358.36 193.216V280H1322.52ZM1427.22 213.952C1427.22 199.957 1428.25 188.437 1430.29 179.392C1432.34 170.347 1435.93 163.093 1441.05 157.632C1446.17 152.171 1452.48 148.331 1459.99 146.112C1467.67 143.893 1477.4 142.784 1489.17 142.784C1512.56 142.784 1528.68 147.904 1537.56 158.144C1546.6 168.384 1551.13 186.987 1551.13 213.952C1551.13 239.381 1546.69 256.96 1537.81 266.688C1529.11 276.416 1512.9 281.28 1489.17 281.28C1479.79 281.28 1471.6 280.512 1464.6 278.976C1457.77 277.269 1451.88 274.795 1446.93 271.552C1442.16 268.309 1438.32 264.043 1435.41 258.752C1432.51 253.291 1430.38 246.976 1429.01 239.808C1427.82 232.469 1427.22 223.851 1427.22 213.952ZM1463.06 213.952C1463.06 222.656 1463.49 229.568 1464.34 234.688C1465.2 239.808 1466.73 243.733 1468.95 246.464C1471.34 249.024 1473.98 250.645 1476.89 251.328C1479.79 252.011 1483.88 252.352 1489.17 252.352C1493.78 252.352 1497.28 252.181 1499.67 251.84C1502.23 251.499 1504.62 250.645 1506.84 249.28C1509.23 247.915 1510.93 245.781 1511.96 242.88C1513.15 239.979 1514.01 236.309 1514.52 231.872C1515.03 227.264 1515.29 221.291 1515.29 213.952C1515.29 206.101 1515.03 199.787 1514.52 195.008C1514.18 190.059 1513.49 185.963 1512.47 182.72C1511.45 179.307 1509.82 176.917 1507.61 175.552C1505.39 174.016 1502.91 172.992 1500.18 172.48C1497.45 171.797 1493.78 171.456 1489.17 171.456C1485.42 171.456 1482.35 171.627 1479.96 171.968C1477.57 172.309 1475.26 173.077 1473.05 174.272C1470.83 175.296 1469.12 176.747 1467.93 178.624C1466.9 180.331 1465.96 182.805 1465.11 186.048C1464.26 189.291 1463.66 193.131 1463.32 197.568C1463.15 202.005 1463.06 207.467 1463.06 213.952ZM1564.84 171.456V148.416L1586.09 144.064V118.72C1586.09 112.576 1586.77 107.2 1588.14 102.592C1589.5 97.984 1591.63 93.888 1594.54 90.304C1597.61 86.5493 1601.79 83.7333 1607.08 81.856C1612.37 79.808 1618.77 78.784 1626.28 78.784C1639.08 78.784 1650.51 80.832 1660.58 84.928V106.176L1636.01 105.92C1633.28 105.92 1630.97 106.261 1629.1 106.944C1627.22 107.627 1625.77 108.395 1624.74 109.248C1623.89 109.931 1623.21 111.467 1622.7 113.856C1622.35 116.075 1622.1 117.952 1621.93 119.488C1621.93 120.853 1621.93 123.413 1621.93 127.168V144.064H1652.9V171.456H1621.93V280H1586.09V171.456H1564.84ZM1673.72 123.84V101.312C1673.72 96.8747 1675.77 94.656 1679.87 94.656H1706.75C1710.5 94.656 1712.38 96.8747 1712.38 101.312V123.84C1712.38 125.717 1711.87 127.168 1710.84 128.192C1709.99 129.216 1708.62 129.728 1706.75 129.728H1679.87C1678.67 129.728 1677.56 129.557 1676.54 129.216C1675.68 128.704 1675 128.021 1674.49 127.168C1673.98 126.144 1673.72 125.035 1673.72 123.84ZM1675 280V144.064H1710.84V280H1675ZM1733.77 231.616V79.552H1769.61V225.984C1769.61 235.029 1770.55 241.344 1772.43 244.928C1774.3 248.512 1777.29 251.072 1781.39 252.608C1791.63 256.192 1797.34 257.984 1798.54 257.984V280H1768.84C1763.21 280 1758.26 279.147 1753.99 277.44C1749.73 275.733 1746.06 273.088 1742.99 269.504C1739.91 265.749 1737.61 260.715 1736.07 254.4C1734.54 248.085 1733.77 240.491 1733.77 231.616ZM1811.97 211.392C1811.97 199.616 1812.65 189.803 1814.02 181.952C1815.56 173.931 1817.69 167.36 1820.42 162.24C1823.15 156.949 1826.99 152.939 1831.94 150.208C1836.89 147.477 1842.35 145.6 1848.32 144.576C1854.47 143.552 1862.15 143.04 1871.36 143.04C1877.51 143.04 1882.71 143.211 1886.98 143.552C1891.25 143.723 1895.51 144.235 1899.78 145.088C1904.22 145.771 1907.8 146.88 1910.53 148.416C1913.26 149.781 1915.91 151.744 1918.47 154.304C1921.03 156.693 1922.99 159.68 1924.36 163.264C1925.89 166.677 1927 170.859 1927.68 175.808C1928.54 180.587 1928.96 186.133 1928.96 192.448C1928.96 204.395 1925.81 213.099 1919.49 218.56C1913.18 224.021 1903.71 226.752 1891.08 226.752H1847.81C1847.81 234.603 1848.92 240.491 1851.14 244.416C1853.53 248.171 1856.43 250.475 1859.84 251.328C1863.43 252.181 1868.97 252.608 1876.48 252.608C1897.48 252.608 1914.12 251.669 1926.4 249.792V274.112C1913.6 278.891 1890.39 281.28 1856.77 281.28C1848.07 281.28 1840.81 280 1835.01 277.44C1829.38 274.88 1824.86 270.699 1821.44 264.896C1818.03 259.093 1815.56 251.925 1814.02 243.392C1812.65 234.859 1811.97 224.192 1811.97 211.392ZM1847.81 200.896H1881.86C1889.37 200.896 1893.12 197.483 1893.12 190.656C1893.12 182.123 1891.93 176.661 1889.54 174.272C1887.32 171.712 1881.95 170.432 1873.41 170.432C1867.95 170.432 1863.85 170.688 1861.12 171.2C1858.56 171.541 1856 172.736 1853.44 174.784C1851.05 176.661 1849.43 179.648 1848.58 183.744C1847.9 187.84 1847.64 193.557 1847.81 200.896ZM1944.68 191.168V179.392C1944.68 154.987 1956.46 142.784 1980.01 142.784C2020.46 142.784 2044.69 145.088 2052.71 149.696V172.224H1991.02C1988.8 172.224 1986.92 172.395 1985.38 172.736C1984.02 173.077 1982.99 173.675 1982.31 174.528C1981.63 175.381 1981.12 176.32 1980.78 177.344C1980.61 178.368 1980.52 179.819 1980.52 181.696V187.84C1980.52 191.765 1981.37 194.24 1983.08 195.264C1984.79 196.117 1987.43 196.544 1991.02 196.544H2023.27C2029.59 196.544 2035.05 197.483 2039.66 199.36C2044.43 201.067 2048.19 203.541 2050.92 206.784C2053.82 210.027 2055.95 213.781 2057.32 218.048C2058.69 222.144 2059.37 226.667 2059.37 231.616V245.696C2059.37 266.176 2050.75 277.867 2033.51 280.768C2031.12 281.109 2028.65 281.28 2026.09 281.28C1983.08 281.28 1957.82 278.805 1950.31 273.856V251.584H2014.57C2020.54 251.584 2023.53 248.683 2023.53 242.88V236.48C2023.53 234.432 2023.27 232.811 2022.76 231.616C2022.42 230.421 2021.57 229.483 2020.2 228.8C2018.83 228.117 2016.96 227.776 2014.57 227.776H1982.82C1970.37 227.776 1960.89 224.875 1954.41 219.072C1947.92 213.269 1944.68 203.968 1944.68 191.168ZM2083.38 274.112V251.072C2083.38 246.805 2085.43 244.672 2089.53 244.672H2111.54C2115.81 244.672 2117.94 246.805 2117.94 251.072V274.112C2117.94 278.037 2115.81 280 2111.54 280H2089.53C2087.65 280 2086.11 279.488 2084.92 278.464C2083.9 277.269 2083.38 275.819 2083.38 274.112Z" fill="white"/>
</svg>
